<svg width="335" height="116" viewBox="0 0 335 116" fill="none" xmlns="http://www.w3.org/2000/svg">
<path d="M235.811 110.905C232.404 110.905 229.721 109.953 227.765 108.05C225.821 106.133 224.85 103.537 224.85 100.263C224.85 96.8817 225.861 94.2395 227.884 92.3361C229.908 90.4193 232.643 89.4609 236.091 89.4609C239.485 89.4609 242.147 90.4193 244.077 92.3361C246.007 94.2395 246.972 96.762 246.972 99.9033C246.972 103.298 245.974 105.98 243.977 107.95C241.994 109.92 239.272 110.905 235.811 110.905ZM235.971 94.2928C234.48 94.2928 233.322 94.8053 232.497 95.8302C231.671 96.8551 231.259 98.306 231.259 100.183C231.259 104.11 232.843 106.073 236.011 106.073C239.032 106.073 240.543 104.056 240.543 100.023C240.543 96.2029 239.019 94.2928 235.971 94.2928Z" fill="#1B9BD2"/>
<path d="M216.415 86.7256C215.35 86.7256 214.478 86.4128 213.8 85.7872C213.121 85.1483 212.781 84.3696 212.781 83.4511C212.781 82.5061 213.121 81.734 213.8 81.1351C214.478 80.5361 215.35 80.2366 216.415 80.2366C217.493 80.2366 218.365 80.5361 219.031 81.1351C219.71 81.734 220.049 82.5061 220.049 83.4511C220.049 84.4095 219.71 85.1949 219.031 85.8072C218.365 86.4195 217.493 86.7256 216.415 86.7256ZM219.53 110.406H213.221V89.9602H219.53V110.406Z" fill="#1B9BD2"/>
<path d="M206.682 110.406H200.373V107.59H200.293C198.855 109.8 196.746 110.905 193.964 110.905C191.408 110.905 189.351 110.006 187.794 108.209C186.237 106.399 185.458 103.877 185.458 100.642C185.458 97.2612 186.317 94.5524 188.034 92.5158C189.751 90.4793 192 89.461 194.782 89.461C197.418 89.461 199.255 90.4061 200.293 92.2962H200.373V80.1367H206.682V110.406ZM200.493 100.462V98.925C200.493 97.5939 200.107 96.4891 199.335 95.6106C198.563 94.7321 197.558 94.2928 196.32 94.2928C194.922 94.2928 193.831 94.8452 193.045 95.95C192.26 97.0415 191.867 98.5457 191.867 100.462C191.867 102.259 192.247 103.644 193.005 104.615C193.764 105.587 194.816 106.073 196.16 106.073C197.438 106.073 198.476 105.56 199.275 104.536C200.087 103.511 200.493 102.153 200.493 100.462Z" fill="#1B9BD2"/>
<path d="M180.119 110.406H173.829V107.291H173.73C172.172 109.7 170.089 110.905 167.48 110.905C162.741 110.905 160.372 108.036 160.372 102.299V89.9602H166.661V101.74C166.661 104.629 167.806 106.073 170.096 106.073C171.227 106.073 172.132 105.68 172.811 104.895C173.49 104.096 173.829 103.018 173.829 101.66V89.9602H180.119V110.406Z" fill="#1B9BD2"/>
<path d="M155.89 110.166C154.959 110.659 153.554 110.905 151.677 110.905C147.232 110.905 145.009 108.595 145.009 103.976V94.6123H141.694V89.9601H145.009V85.5476L151.298 83.7506V89.9601H155.89V94.6123H151.298V102.878C151.298 105.008 152.143 106.073 153.834 106.073C154.499 106.073 155.185 105.88 155.89 105.494V110.166Z" fill="#1B9BD2"/>
<path d="M119.723 109.308V102.918C120.881 103.89 122.139 104.622 123.497 105.115C124.855 105.594 126.226 105.833 127.61 105.833C128.422 105.833 129.127 105.76 129.726 105.614C130.339 105.467 130.845 105.268 131.244 105.015C131.657 104.749 131.963 104.442 132.162 104.096C132.362 103.737 132.462 103.351 132.462 102.938C132.462 102.379 132.302 101.88 131.983 101.441C131.663 101.002 131.224 100.596 130.665 100.223C130.119 99.8502 129.467 99.4908 128.708 99.1447C127.949 98.7986 127.131 98.4459 126.252 98.0865C124.016 97.1547 122.346 96.0166 121.241 94.6722C120.149 93.3278 119.604 91.7039 119.604 89.8004C119.604 88.3096 119.903 87.0318 120.502 85.9669C121.101 84.8887 121.913 84.0036 122.938 83.3114C123.976 82.6192 125.174 82.1134 126.532 81.794C127.89 81.4612 129.327 81.2948 130.845 81.2948C132.335 81.2948 133.653 81.388 134.798 81.5743C135.956 81.7474 137.021 82.0202 137.992 82.3929V88.3629C137.513 88.0301 136.988 87.7373 136.415 87.4844C135.856 87.2314 135.277 87.0251 134.678 86.8654C134.079 86.6924 133.48 86.5659 132.881 86.486C132.295 86.4062 131.736 86.3662 131.204 86.3662C130.472 86.3662 129.806 86.4395 129.207 86.5859C128.608 86.719 128.103 86.912 127.69 87.1649C127.277 87.4178 126.958 87.724 126.731 88.0833C126.505 88.4294 126.392 88.8221 126.392 89.2614C126.392 89.7405 126.519 90.1732 126.771 90.5592C127.024 90.9319 127.384 91.2913 127.85 91.6373C128.315 91.9701 128.881 92.3029 129.547 92.6357C130.212 92.9551 130.964 93.2879 131.803 93.634C132.948 94.1132 133.973 94.6256 134.878 95.1714C135.796 95.7038 136.582 96.3095 137.234 96.9883C137.886 97.6672 138.385 98.4459 138.731 99.3244C139.077 100.19 139.25 101.201 139.25 102.359C139.25 103.957 138.944 105.301 138.332 106.392C137.733 107.471 136.914 108.349 135.876 109.028C134.838 109.694 133.627 110.173 132.242 110.466C130.871 110.758 129.42 110.905 127.89 110.905C126.319 110.905 124.821 110.772 123.397 110.506C121.986 110.239 120.762 109.84 119.723 109.308Z" fill="#1B9BD2"/>
<path d="M334.78 74.4216H328.49V63.0608C328.49 59.8928 327.359 58.3088 325.096 58.3088C324.005 58.3088 323.106 58.7281 322.401 59.5667C321.695 60.4052 321.343 61.4701 321.343 62.7613V74.4216H315.033V53.9761H321.343V57.2106H321.422C322.927 54.7215 325.116 53.4769 327.991 53.4769C332.517 53.4769 334.78 56.2855 334.78 61.9027V74.4216Z" fill="#1B9BD2"/>
<path d="M298.551 74.9207C295.144 74.9207 292.462 73.969 290.505 72.0656C288.562 70.1488 287.59 67.5532 287.59 64.2787C287.59 60.8977 288.601 58.2555 290.625 56.3521C292.648 54.4353 295.383 53.4769 298.831 53.4769C302.225 53.4769 304.887 54.4353 306.817 56.3521C308.747 58.2555 309.713 60.7779 309.713 63.9193C309.713 67.3136 308.714 69.9957 306.718 71.9657C304.734 73.9357 302.012 74.9207 298.551 74.9207ZM298.711 58.3088C297.22 58.3088 296.062 58.8212 295.237 59.8462C294.412 60.8711 293.999 62.322 293.999 64.1988C293.999 68.1255 295.583 70.0889 298.751 70.0889C301.773 70.0889 303.283 68.0723 303.283 64.0391C303.283 60.2189 301.759 58.3088 298.711 58.3088Z" fill="#1B9BD2"/>
<path d="M279.155 50.7415C278.09 50.7415 277.219 50.4287 276.54 49.8031C275.861 49.1642 275.521 48.3855 275.521 47.467C275.521 46.5219 275.861 45.7499 276.54 45.1509C277.219 44.5519 278.09 44.2524 279.155 44.2524C280.234 44.2524 281.105 44.5519 281.771 45.1509C282.45 45.7499 282.789 46.5219 282.789 47.467C282.789 48.4254 282.45 49.2107 281.771 49.823C281.105 50.4353 280.234 50.7415 279.155 50.7415ZM282.27 74.4215H275.961V53.976H282.27V74.4215Z" fill="#1B9BD2"/>
<path d="M271.161 74.182C270.229 74.6745 268.825 74.9208 266.948 74.9208C262.502 74.9208 260.279 72.6113 260.279 67.9925V58.6283H256.965V53.9761H260.279V49.5636L266.569 47.7666V53.9761H271.161V58.6283H266.569V66.8943C266.569 69.0241 267.414 70.0889 269.104 70.0889C269.77 70.0889 270.455 69.8959 271.161 69.5099V74.182Z" fill="#1B9BD2"/>
<path d="M252.583 74.4216H246.613V71.4865H246.534C245.163 73.776 243.133 74.9207 240.444 74.9207C238.461 74.9207 236.897 74.3617 235.752 73.2436C234.62 72.1122 234.055 70.608 234.055 68.7312C234.055 64.7645 236.404 62.4751 241.103 61.8628L246.653 61.124C246.653 58.8878 245.442 57.7697 243.02 57.7697C240.584 57.7697 238.268 58.4951 236.071 59.946V55.194C236.95 54.7415 238.148 54.3421 239.665 53.9961C241.196 53.65 242.587 53.4769 243.838 53.4769C249.668 53.4769 252.583 56.3854 252.583 62.2022V74.4216ZM246.653 66.1156V64.7379L242.94 65.2171C240.89 65.4833 239.865 66.4084 239.865 67.9924C239.865 68.7112 240.111 69.3036 240.604 69.7694C241.109 70.222 241.788 70.4483 242.64 70.4483C243.825 70.4483 244.79 70.0423 245.535 69.2303C246.281 68.4051 246.653 67.3668 246.653 66.1156Z" fill="#1B9BD2"/>
<path d="M232.289 53.9761L224.682 74.4216H217.494L210.246 53.9761H216.995L220.549 66.5748C220.948 67.9991 221.181 69.2104 221.248 70.2087H221.327C221.421 69.2636 221.667 68.0923 222.066 66.6946L225.7 53.9761H232.289Z" fill="#1B9BD2"/>
<path d="M196.34 74.9207C192.933 74.9207 190.251 73.969 188.294 72.0656C186.351 70.1488 185.379 67.5532 185.379 64.2787C185.379 60.8977 186.391 58.2555 188.414 56.3521C190.437 54.4353 193.172 53.4769 196.62 53.4769C200.014 53.4769 202.676 54.4353 204.606 56.3521C206.537 58.2555 207.502 60.7779 207.502 63.9193C207.502 67.3136 206.503 69.9957 204.507 71.9657C202.523 73.9357 199.801 74.9207 196.34 74.9207ZM196.5 58.3088C195.009 58.3088 193.851 58.8212 193.026 59.8462C192.201 60.8711 191.788 62.322 191.788 64.1988C191.788 68.1255 193.372 70.0889 196.54 70.0889C199.562 70.0889 201.072 68.0723 201.072 64.0391C201.072 60.2189 199.548 58.3088 196.5 58.3088Z" fill="#1B9BD2"/>
<path d="M180.358 74.4216H174.069V63.0608C174.069 59.8928 172.937 58.3088 170.674 58.3088C169.583 58.3088 168.684 58.7281 167.979 59.5667C167.273 60.4052 166.921 61.4701 166.921 62.7613V74.4216H160.611V53.9761H166.921V57.2106H167.001C168.505 54.7215 170.694 53.4769 173.569 53.4769C178.095 53.4769 180.358 56.2855 180.358 61.9027V74.4216Z" fill="#1B9BD2"/>
<path d="M154.374 74.4216H148.084V63.0608C148.084 59.8928 146.953 58.3088 144.69 58.3088C143.598 58.3088 142.7 58.7281 141.995 59.5667C141.289 60.4052 140.936 61.4701 140.936 62.7613V74.4216H134.627V53.9761H140.936V57.2106H141.016C142.52 54.7215 144.71 53.4769 147.585 53.4769C152.111 53.4769 154.374 56.2855 154.374 61.9027V74.4216Z" fill="#1B9BD2"/>
<path d="M127.489 74.4216H121.04V45.7899H127.489V74.4216Z" fill="#1B9BD2"/>
<path d="M191.975 38.4154C191.044 38.9079 189.639 39.1542 187.762 39.1542C183.317 39.1542 181.094 36.8447 181.094 32.2259V22.8617H177.779V18.2095H181.094V13.797L187.383 12V18.2095H191.975V22.8617H187.383V31.1277C187.383 33.2575 188.228 34.3223 189.919 34.3223C190.584 34.3223 191.27 34.1293 191.975 33.7433V38.4154Z" fill="#1B9BD2"/>
<path d="M172.791 38.4375H166.822V35.5024H166.742C165.371 37.7919 163.341 38.9366 160.652 38.9366C158.669 38.9366 157.105 38.3776 155.96 37.2594C154.828 36.128 154.263 34.6239 154.263 32.7471C154.263 28.7804 156.612 26.4909 161.311 25.8786L166.861 25.1399C166.861 22.9037 165.65 21.7856 163.228 21.7856C160.792 21.7856 158.476 22.511 156.279 23.9619V19.2099C157.158 18.7573 158.356 18.358 159.873 18.0119C161.404 17.6658 162.795 17.4928 164.046 17.4928C169.876 17.4928 172.791 20.4012 172.791 26.2181V38.4375ZM166.861 30.1315V28.7538L163.148 29.233C161.098 29.4992 160.073 30.4243 160.073 32.0083C160.073 32.7271 160.319 33.3194 160.812 33.7853C161.317 34.2379 161.996 34.4642 162.848 34.4642C164.033 34.4642 164.998 34.0582 165.743 33.2462C166.489 32.4209 166.861 31.3827 166.861 30.1315Z" fill="#1B9BD2"/>
<path d="M149.242 38.4375H142.933V8.16858H149.242V38.4375Z" fill="#1B9BD2"/>
<path d="M137.592 15.0569H127.489V22.0851H136.773V27.3162H127.489V38.4375H121.04V9.80579H137.592V15.0569Z" fill="#1B9BD2"/>
<path d="M62.9724 71.5593C62.9724 74.9468 60.2262 77.693 56.8387 77.693C53.4512 77.693 50.7051 74.9468 50.7051 71.5593C50.7051 68.1718 53.4512 65.4257 56.8387 65.4257C60.2262 65.4257 62.9724 68.1718 62.9724 71.5593Z" fill="#1B9BD2"/>
<path d="M55.0409 85.1333C55.0857 84.1731 55.8772 83.4177 56.8384 83.4177V83.4177C57.7996 83.4177 58.5911 84.1731 58.6359 85.1333L59.5674 105.093C59.64 106.65 58.3972 107.952 56.8384 107.952V107.952C55.2796 107.952 54.0368 106.65 54.1095 105.093L55.0409 85.1333Z" fill="#1B9BD2"/>
<path d="M43.2636 69.7981C44.2188 69.8224 44.9805 70.6038 44.9805 71.5593V71.5593C44.9805 72.5147 44.2188 73.2961 43.2636 73.3204L2.86181 74.3488C1.29339 74.3887 0.00036478 73.1282 0.00036478 71.5593V71.5593C0.00036478 69.9903 1.29339 68.7298 2.86181 68.7697L43.2636 69.7981Z" fill="#1B9BD2"/>
<path d="M70.4132 69.7981C69.458 69.8224 68.6963 70.6038 68.6963 71.5593V71.5593C68.6963 72.5147 69.458 73.2961 70.4132 73.3204L110.815 74.3488C112.383 74.3887 113.676 73.1282 113.676 71.5593V71.5593C113.676 69.9903 112.383 68.7298 110.815 68.7697L70.4132 69.7981Z" fill="#1B9BD2"/>
<path d="M61.4805 59.5496C61.0393 60.4036 61.347 61.4535 62.1794 61.9341V61.9341C63.0118 62.4147 64.075 62.1562 64.5939 61.3471L75.3804 44.5272C76.2219 43.215 75.7967 41.4659 74.4467 40.6865V40.6865C73.0968 39.9071 71.3694 40.4134 70.6538 41.7982L61.4805 59.5496Z" fill="#1B9BD2"/>
<path d="M69.2281 66.7301C68.385 67.1829 67.3348 66.8841 66.8563 66.0553V66.0553C66.3779 65.2266 66.6442 64.1677 67.4578 63.6639L95.2011 46.487C96.5329 45.6624 98.2828 46.1025 99.066 47.4591V47.4591C99.8492 48.8156 99.3554 50.5511 97.9754 51.2922L69.2281 66.7301Z" fill="#1B9BD2"/>
<path d="M51.1919 59.8928C51.6447 60.7358 51.3459 61.7861 50.5171 62.2645V62.2645C49.6884 62.743 48.6295 62.4767 48.1257 61.663L30.9488 33.9197C30.1242 32.5879 30.5643 30.8381 31.9209 30.0549V30.0549C33.2774 29.2717 35.0129 29.7654 35.754 31.1454L51.1919 59.8928Z" fill="#1B9BD2"/>
<path d="M44.3391 66.759C45.1951 67.198 46.245 66.8885 46.726 66.0553V66.0553C47.207 65.2222 46.9501 64.1582 46.1419 63.6364L30.6456 53.6305C29.3373 52.7857 27.5884 53.208 26.8097 54.5567V54.5567C26.0311 55.9053 26.5398 57.6311 27.9255 58.3417L44.3391 66.759Z" fill="#1B9BD2"/>
<path d="M61.4805 84.224C61.0393 83.3701 61.347 82.3202 62.1794 81.8396V81.8396C63.0118 81.359 64.075 81.6175 64.5939 82.4266L75.3804 99.2465C76.2219 100.559 75.7967 102.308 74.4467 103.087V103.087C73.0968 103.867 71.3694 103.36 70.6538 101.975L61.4805 84.224Z" fill="#1B9BD2"/>
<path d="M69.2281 77.0436C68.385 76.5908 67.3348 76.8896 66.8563 77.7183V77.7183C66.3779 78.5471 66.6442 79.606 67.4578 80.1097L95.2011 97.2867C96.5329 98.1113 98.2828 97.6711 99.066 96.3146V96.3146C99.8492 94.9581 99.3554 93.2226 97.9754 92.4815L69.2281 77.0436Z" fill="#1B9BD2"/>
<path d="M51.1919 83.8808C51.6447 83.0377 51.3459 81.9875 50.5171 81.509V81.509C49.6884 81.0306 48.6295 81.2969 48.1257 82.1105L30.9488 109.854C30.1242 111.186 30.5643 112.936 31.9209 113.719V113.719C33.2774 114.502 35.0129 114.008 35.754 112.628L51.1919 83.8808Z" fill="#1B9BD2"/>
<path d="M44.3391 77.0147C45.1951 76.5757 46.245 76.8852 46.726 77.7183V77.7183C47.207 78.5515 46.9501 79.6154 46.1419 80.1373L30.6456 90.1432C29.3373 90.9879 27.5884 90.5656 26.8097 89.217V89.217C26.0311 87.8684 26.5398 86.1426 27.9255 85.432L44.3391 77.0147Z" fill="#1B9BD2"/>
<path d="M55.0893 59.6194C55.1071 60.5729 55.8851 61.3365 56.8387 61.3365V61.3365C57.7924 61.3365 58.5704 60.5729 58.5882 59.6194L59.6477 2.86192C59.677 1.29006 58.4109 5.13792e-05 56.8387 5.13792e-05V5.13792e-05C55.2666 5.13792e-05 54.0005 1.29007 54.0298 2.86192L55.0893 59.6194Z" fill="#1B9BD2"/>
</svg>
