<svg width="172" height="12" viewBox="0 0 172 12" fill="none" xmlns="http://www.w3.org/2000/svg">
<path d="M1.92614 0.272727V9H0.920455V0.272727H1.92614ZM5.69425 9.15341C5.27947 9.15341 4.90305 9.07528 4.56499 8.91903C4.22692 8.75994 3.95845 8.53125 3.75959 8.23295C3.56072 7.93182 3.46129 7.56818 3.46129 7.14205C3.46129 6.76705 3.53516 6.46307 3.68288 6.23011C3.83061 5.99432 4.02805 5.80966 4.27521 5.67614C4.52237 5.54261 4.7951 5.44318 5.09339 5.37784C5.39453 5.30966 5.69709 5.25568 6.00107 5.21591C6.39879 5.16477 6.72124 5.12642 6.9684 5.10085C7.2184 5.07244 7.40021 5.02557 7.51385 4.96023C7.63033 4.89489 7.68857 4.78125 7.68857 4.61932V4.58523C7.68857 4.16477 7.57351 3.83807 7.3434 3.60511C7.11612 3.37216 6.77095 3.25568 6.30788 3.25568C5.82777 3.25568 5.45135 3.3608 5.17862 3.57102C4.90589 3.78125 4.71413 4.00568 4.60334 4.24432L3.64879 3.90341C3.81925 3.50568 4.04652 3.19602 4.33061 2.97443C4.61754 2.75 4.93004 2.59375 5.26811 2.50568C5.60902 2.41477 5.94425 2.36932 6.27379 2.36932C6.48402 2.36932 6.7255 2.39489 6.99822 2.44602C7.27379 2.49432 7.53942 2.59517 7.7951 2.74858C8.05362 2.90199 8.26811 3.13352 8.43857 3.44318C8.60902 3.75284 8.69425 4.16761 8.69425 4.6875V9H7.68857V8.11364H7.63743C7.56925 8.25568 7.45561 8.40767 7.29652 8.5696C7.13743 8.73153 6.92578 8.86932 6.66158 8.98295C6.39737 9.09659 6.07493 9.15341 5.69425 9.15341ZM5.84766 8.25C6.24538 8.25 6.58061 8.17188 6.85334 8.01562C7.12891 7.85938 7.33629 7.65767 7.4755 7.41051C7.61754 7.16335 7.68857 6.90341 7.68857 6.63068V5.71023C7.64595 5.76136 7.5522 5.80824 7.40732 5.85085C7.26527 5.89062 7.1005 5.92614 6.913 5.95739C6.72834 5.9858 6.54794 6.01136 6.3718 6.03409C6.19851 6.05398 6.05788 6.07102 5.94993 6.08523C5.68857 6.11932 5.44425 6.17472 5.21697 6.25142C4.99254 6.32528 4.81072 6.4375 4.67152 6.58807C4.53516 6.7358 4.46697 6.9375 4.46697 7.19318C4.46697 7.54261 4.59624 7.80682 4.85476 7.9858C5.11612 8.16193 5.44709 8.25 5.84766 8.25ZM15.1662 3.92045L14.2628 4.17614C14.206 4.02557 14.1222 3.87926 14.0114 3.73722C13.9034 3.59233 13.7557 3.47301 13.5682 3.37926C13.3807 3.28551 13.1406 3.23864 12.848 3.23864C12.4474 3.23864 12.1136 3.33097 11.8466 3.51562C11.5824 3.69744 11.4503 3.92898 11.4503 4.21023C11.4503 4.46023 11.5412 4.65767 11.723 4.80256C11.9048 4.94744 12.1889 5.06818 12.5753 5.16477L13.5469 5.40341C14.1321 5.54545 14.5682 5.76278 14.8551 6.0554C15.142 6.34517 15.2855 6.71875 15.2855 7.17614C15.2855 7.55114 15.1776 7.88636 14.9616 8.18182C14.7486 8.47727 14.4503 8.71023 14.0668 8.88068C13.6832 9.05114 13.2372 9.13636 12.7287 9.13636C12.0611 9.13636 11.5085 8.99148 11.071 8.7017C10.6335 8.41193 10.3565 7.98864 10.2401 7.43182L11.1946 7.19318C11.2855 7.54545 11.4574 7.80966 11.7102 7.9858C11.9659 8.16193 12.2997 8.25 12.7116 8.25C13.1804 8.25 13.5526 8.15057 13.8281 7.9517C14.1065 7.75 14.2457 7.50852 14.2457 7.22727C14.2457 7 14.1662 6.80966 14.0071 6.65625C13.848 6.5 13.6037 6.38352 13.2741 6.30682L12.1832 6.05114C11.5838 5.90909 11.1435 5.68892 10.8622 5.39062C10.5838 5.08949 10.4446 4.71307 10.4446 4.26136C10.4446 3.89205 10.5483 3.56534 10.7557 3.28125C10.9659 2.99716 11.2514 2.77415 11.6122 2.61222C11.9759 2.45028 12.3878 2.36932 12.848 2.36932C13.4957 2.36932 14.0043 2.51136 14.3736 2.79545C14.7457 3.07955 15.0099 3.45455 15.1662 3.92045ZM19.5437 9.13636C18.913 9.13636 18.369 8.99716 17.9116 8.71875C17.457 8.4375 17.1062 8.04545 16.859 7.54261C16.6147 7.03693 16.4925 6.44886 16.4925 5.77841C16.4925 5.10795 16.6147 4.51705 16.859 4.00568C17.1062 3.49148 17.4499 3.09091 17.8903 2.80398C18.3335 2.5142 18.8505 2.36932 19.4414 2.36932C19.7823 2.36932 20.119 2.42614 20.4513 2.53977C20.7837 2.65341 21.0863 2.83807 21.359 3.09375C21.6317 3.34659 21.8491 3.68182 22.011 4.09943C22.1729 4.51705 22.2539 5.03125 22.2539 5.64205V6.06818H17.2085V5.19886H21.2312C21.2312 4.82955 21.1573 4.5 21.0096 4.21023C20.8647 3.92045 20.6573 3.69176 20.3874 3.52415C20.1204 3.35653 19.805 3.27273 19.4414 3.27273C19.0408 3.27273 18.6942 3.37216 18.4016 3.57102C18.1119 3.76705 17.8888 4.02273 17.7326 4.33807C17.5763 4.65341 17.4982 4.99148 17.4982 5.35227V5.93182C17.4982 6.42614 17.5835 6.84517 17.7539 7.18892C17.9272 7.52983 18.1673 7.78977 18.4741 7.96875C18.7809 8.14489 19.1374 8.23295 19.5437 8.23295C19.8079 8.23295 20.0465 8.19602 20.2596 8.12216C20.4755 8.04545 20.6616 7.93182 20.8178 7.78125C20.9741 7.62784 21.0948 7.4375 21.18 7.21023L22.1516 7.48295C22.0494 7.8125 21.8775 8.10227 21.636 8.35227C21.3945 8.59943 21.0962 8.79261 20.7411 8.93182C20.386 9.06818 19.9869 9.13636 19.5437 9.13636ZM23.7837 9V2.45455H24.7553V3.44318H24.8235C24.9428 3.11932 25.1587 2.85653 25.4712 2.65483C25.7837 2.45312 26.136 2.35227 26.5281 2.35227C26.6019 2.35227 26.6942 2.35369 26.805 2.35653C26.9158 2.35937 26.9996 2.36364 27.0565 2.36932V3.39205C27.0224 3.38352 26.9442 3.37074 26.8221 3.35369C26.7028 3.33381 26.5763 3.32386 26.4428 3.32386C26.1246 3.32386 25.8406 3.39062 25.5906 3.52415C25.3434 3.65483 25.1474 3.83665 25.0025 4.0696C24.8604 4.29972 24.7894 4.5625 24.7894 4.85795V9H23.7837ZM32.7656 9V9.9375H27.3111V9H32.7656ZM34.6119 6.61364L34.5948 5.36932H34.7994L37.663 2.45455H38.9073L35.8562 5.53977H35.771L34.6119 6.61364ZM33.6744 9V0.272727H34.68V9H33.6744ZM37.8335 9L35.2766 5.76136L35.9925 5.0625L39.1119 9H37.8335ZM42.5913 9.13636C42.0004 9.13636 41.4819 8.99574 41.0359 8.71449C40.5927 8.43324 40.2461 8.03977 39.9961 7.53409C39.7489 7.02841 39.6254 6.4375 39.6254 5.76136C39.6254 5.07955 39.7489 4.48437 39.9961 3.97585C40.2461 3.46733 40.5927 3.07244 41.0359 2.79119C41.4819 2.50994 42.0004 2.36932 42.5913 2.36932C43.1822 2.36932 43.6992 2.50994 44.1424 2.79119C44.5884 3.07244 44.935 3.46733 45.1822 3.97585C45.4322 4.48437 45.5572 5.07955 45.5572 5.76136C45.5572 6.4375 45.4322 7.02841 45.1822 7.53409C44.935 8.03977 44.5884 8.43324 44.1424 8.71449C43.6992 8.99574 43.1822 9.13636 42.5913 9.13636ZM42.5913 8.23295C43.0401 8.23295 43.4094 8.1179 43.6992 7.88778C43.989 7.65767 44.2035 7.35511 44.3427 6.98011C44.4819 6.60511 44.5515 6.19886 44.5515 5.76136C44.5515 5.32386 44.4819 4.91619 44.3427 4.53835C44.2035 4.16051 43.989 3.85511 43.6992 3.62216C43.4094 3.3892 43.0401 3.27273 42.5913 3.27273C42.1424 3.27273 41.7731 3.3892 41.4833 3.62216C41.1935 3.85511 40.979 4.16051 40.8398 4.53835C40.7006 4.91619 40.631 5.32386 40.631 5.76136C40.631 6.19886 40.7006 6.60511 40.8398 6.98011C40.979 7.35511 41.1935 7.65767 41.4833 7.88778C41.7731 8.1179 42.1424 8.23295 42.5913 8.23295ZM51.2173 6.32386V2.45455H52.223V9H51.2173V7.89205H51.1491C50.9957 8.22443 50.7571 8.5071 50.4332 8.74006C50.1094 8.97017 49.7003 9.08523 49.206 9.08523C48.7969 9.08523 48.4332 8.99574 48.1151 8.81676C47.7969 8.63494 47.5469 8.36222 47.3651 7.99858C47.1832 7.6321 47.0923 7.17045 47.0923 6.61364V2.45455H48.098V6.54545C48.098 7.02273 48.2315 7.40341 48.4986 7.6875C48.7685 7.97159 49.1122 8.11364 49.5298 8.11364C49.7798 8.11364 50.0341 8.04972 50.2926 7.92188C50.554 7.79403 50.7727 7.59801 50.9489 7.33381C51.1278 7.0696 51.2173 6.73295 51.2173 6.32386ZM54.2013 9V0.272727H55.207V3.49432H55.2923C55.3661 3.38068 55.4684 3.2358 55.5991 3.05966C55.7326 2.88068 55.9229 2.72159 56.1701 2.58239C56.4201 2.44034 56.7582 2.36932 57.1843 2.36932C57.7354 2.36932 58.2212 2.5071 58.6417 2.78267C59.0621 3.05824 59.3903 3.44886 59.6261 3.95455C59.8619 4.46023 59.9798 5.05682 59.9798 5.74432C59.9798 6.4375 59.8619 7.03835 59.6261 7.54688C59.3903 8.05256 59.0636 8.4446 58.646 8.72301C58.2283 8.99858 57.7468 9.13636 57.2013 9.13636C56.7809 9.13636 56.4442 9.06676 56.1914 8.92756C55.9386 8.78551 55.744 8.625 55.6076 8.44602C55.4712 8.2642 55.3661 8.11364 55.2923 7.99432H55.1729V9H54.2013ZM55.19 5.72727C55.19 6.22159 55.2624 6.65767 55.4073 7.03551C55.5522 7.41051 55.7638 7.70455 56.0423 7.91761C56.3207 8.12784 56.6616 8.23295 57.065 8.23295C57.4854 8.23295 57.8363 8.12216 58.1175 7.90057C58.4016 7.67614 58.6147 7.375 58.7567 6.99716C58.9016 6.61648 58.9741 6.19318 58.9741 5.72727C58.9741 5.26705 58.9031 4.85227 58.761 4.48295C58.6218 4.1108 58.4102 3.81676 58.1261 3.60085C57.8448 3.3821 57.4911 3.27273 57.065 3.27273C56.6559 3.27273 56.3121 3.37642 56.0337 3.58381C55.7553 3.78835 55.5451 4.07528 55.4031 4.4446C55.261 4.81108 55.19 5.23864 55.19 5.72727ZM64.1772 9.13636C63.5863 9.13636 63.0678 8.99574 62.6218 8.71449C62.1786 8.43324 61.832 8.03977 61.582 7.53409C61.3349 7.02841 61.2113 6.4375 61.2113 5.76136C61.2113 5.07955 61.3349 4.48437 61.582 3.97585C61.832 3.46733 62.1786 3.07244 62.6218 2.79119C63.0678 2.50994 63.5863 2.36932 64.1772 2.36932C64.7681 2.36932 65.2852 2.50994 65.7283 2.79119C66.1744 3.07244 66.521 3.46733 66.7681 3.97585C67.0181 4.48437 67.1431 5.07955 67.1431 5.76136C67.1431 6.4375 67.0181 7.02841 66.7681 7.53409C66.521 8.03977 66.1744 8.43324 65.7283 8.71449C65.2852 8.99574 64.7681 9.13636 64.1772 9.13636ZM64.1772 8.23295C64.6261 8.23295 64.9954 8.1179 65.2852 7.88778C65.5749 7.65767 65.7894 7.35511 65.9286 6.98011C66.0678 6.60511 66.1374 6.19886 66.1374 5.76136C66.1374 5.32386 66.0678 4.91619 65.9286 4.53835C65.7894 4.16051 65.5749 3.85511 65.2852 3.62216C64.9954 3.3892 64.6261 3.27273 64.1772 3.27273C63.7283 3.27273 63.359 3.3892 63.0692 3.62216C62.7795 3.85511 62.565 4.16051 62.4258 4.53835C62.2866 4.91619 62.217 5.32386 62.217 5.76136C62.217 6.19886 62.2866 6.60511 62.4258 6.98011C62.565 7.35511 62.7795 7.65767 63.0692 7.88778C63.359 8.1179 63.7283 8.23295 64.1772 8.23295ZM72.8033 6.32386V2.45455H73.8089V9H72.8033V7.89205H72.7351C72.5817 8.22443 72.343 8.5071 72.0192 8.74006C71.6953 8.97017 71.2862 9.08523 70.7919 9.08523C70.3828 9.08523 70.0192 8.99574 69.701 8.81676C69.3828 8.63494 69.1328 8.36222 68.951 7.99858C68.7692 7.6321 68.6783 7.17045 68.6783 6.61364V2.45455H69.6839V6.54545C69.6839 7.02273 69.8175 7.40341 70.0845 7.6875C70.3544 7.97159 70.6982 8.11364 71.1158 8.11364C71.3658 8.11364 71.62 8.04972 71.8786 7.92188C72.1399 7.79403 72.3587 7.59801 72.5348 7.33381C72.7138 7.0696 72.8033 6.73295 72.8033 6.32386ZM80.6793 11.3011C79.81 11.3011 79.0415 11.1818 78.3739 10.9432C77.7063 10.7074 77.1452 10.3594 76.6907 9.89915C76.2362 9.43892 75.8924 8.875 75.6594 8.20739C75.4265 7.53977 75.31 6.77557 75.31 5.91477C75.31 5.08239 75.4279 4.33807 75.6637 3.68182C75.9023 3.02557 76.2475 2.46875 76.6992 2.01136C77.1538 1.55114 77.7049 1.20028 78.3526 0.958807C79.0032 0.717329 79.739 0.596591 80.56 0.596591C81.3583 0.596591 82.0572 0.727272 82.6566 0.988636C83.2589 1.24716 83.7617 1.59801 84.1651 2.04119C84.5714 2.48153 84.8754 2.97727 85.0771 3.52841C85.2816 4.07955 85.3839 4.64773 85.3839 5.23295C85.3839 5.64489 85.364 6.0625 85.3242 6.4858C85.2844 6.90909 85.2006 7.2983 85.0728 7.65341C84.945 8.00568 84.7475 8.28977 84.4805 8.50568C84.2163 8.72159 83.8583 8.82955 83.4066 8.82955C83.2077 8.82955 82.989 8.7983 82.7504 8.7358C82.5117 8.6733 82.3001 8.5696 82.1154 8.42472C81.9308 8.27983 81.8214 8.08523 81.7873 7.84091H81.7362C81.668 8.00568 81.5629 8.16193 81.4208 8.30966C81.2816 8.45739 81.0984 8.57528 80.8711 8.66335C80.6467 8.75142 80.3725 8.78977 80.0487 8.77841C79.6793 8.7642 79.354 8.68182 79.0728 8.53125C78.7915 8.37784 78.5558 8.17045 78.3654 7.90909C78.1779 7.64489 78.0359 7.33949 77.9393 6.9929C77.8455 6.64347 77.7987 6.26705 77.7987 5.86364C77.7987 5.48011 77.8555 5.12926 77.9691 4.81108C78.0827 4.4929 78.2404 4.21449 78.4421 3.97585C78.6467 3.73722 78.8853 3.54687 79.158 3.40483C79.4336 3.25994 79.7305 3.17045 80.0487 3.13636C80.3327 3.10795 80.5913 3.12074 80.8242 3.17472C81.0572 3.22585 81.2489 3.30398 81.3995 3.40909C81.5501 3.51136 81.6452 3.625 81.685 3.75H81.7362V3.27273H82.6396V7.125C82.6396 7.36364 82.7063 7.57386 82.8398 7.75568C82.9734 7.9375 83.168 8.02841 83.4237 8.02841C83.7134 8.02841 83.935 7.92898 84.0884 7.73011C84.2447 7.53125 84.3512 7.22443 84.408 6.80966C84.4677 6.39489 84.4975 5.86364 84.4975 5.21591C84.4975 4.83523 84.445 4.46023 84.3398 4.09091C84.2376 3.71875 84.0813 3.37074 83.8711 3.04688C83.6637 2.72301 83.4009 2.4375 83.0827 2.19034C82.7646 1.94318 82.391 1.75 81.962 1.6108C81.5359 1.46875 81.0515 1.39773 80.5089 1.39773C79.8413 1.39773 79.2433 1.50142 78.7148 1.70881C78.1893 1.91335 77.7418 2.21307 77.3725 2.60795C77.006 3 76.7262 3.47727 76.533 4.03977C76.3427 4.59943 76.2475 5.2358 76.2475 5.94886C76.2475 6.6733 76.3427 7.31676 76.533 7.87926C76.7262 8.44176 77.0103 8.91619 77.3853 9.30256C77.7631 9.68892 78.2305 9.98153 78.7873 10.1804C79.3441 10.3821 79.9862 10.483 80.7134 10.483C81.0259 10.483 81.3342 10.4531 81.6381 10.3935C81.9421 10.3338 82.2106 10.2685 82.4435 10.1974C82.6765 10.1264 82.8441 10.0739 82.9464 10.0398L83.185 10.8239C83.0089 10.8977 82.7788 10.9716 82.4947 11.0455C82.2134 11.1193 81.9123 11.1804 81.5913 11.2287C81.2731 11.277 80.9691 11.3011 80.6793 11.3011ZM80.185 7.90909C80.5657 7.90909 80.8739 7.83239 81.1097 7.67898C81.3455 7.52557 81.5174 7.29403 81.6254 6.98438C81.7333 6.67472 81.7873 6.28409 81.7873 5.8125C81.7873 5.33523 81.7276 4.96307 81.6083 4.69602C81.489 4.42898 81.3129 4.24148 81.0799 4.13352C80.8469 4.02557 80.56 3.97159 80.2191 3.97159C79.8952 3.97159 79.6183 4.05682 79.3881 4.22727C79.1609 4.39489 78.9862 4.61932 78.864 4.90057C78.7447 5.17898 78.685 5.48295 78.685 5.8125C78.685 6.17614 78.7333 6.51847 78.8299 6.83949C78.9265 7.15767 79.0842 7.41619 79.3029 7.61506C79.5217 7.81108 79.8157 7.90909 80.185 7.90909ZM91.5256 3.92045L90.6222 4.17614C90.5653 4.02557 90.4815 3.87926 90.3707 3.73722C90.2628 3.59233 90.1151 3.47301 89.9276 3.37926C89.7401 3.28551 89.5 3.23864 89.2074 3.23864C88.8068 3.23864 88.473 3.33097 88.206 3.51562C87.9418 3.69744 87.8097 3.92898 87.8097 4.21023C87.8097 4.46023 87.9006 4.65767 88.0824 4.80256C88.2642 4.94744 88.5483 5.06818 88.9347 5.16477L89.9062 5.40341C90.4915 5.54545 90.9276 5.76278 91.2145 6.0554C91.5014 6.34517 91.6449 6.71875 91.6449 7.17614C91.6449 7.55114 91.5369 7.88636 91.321 8.18182C91.108 8.47727 90.8097 8.71023 90.4261 8.88068C90.0426 9.05114 89.5966 9.13636 89.0881 9.13636C88.4205 9.13636 87.8679 8.99148 87.4304 8.7017C86.9929 8.41193 86.7159 7.98864 86.5994 7.43182L87.554 7.19318C87.6449 7.54545 87.8168 7.80966 88.0696 7.9858C88.3253 8.16193 88.6591 8.25 89.071 8.25C89.5398 8.25 89.9119 8.15057 90.1875 7.9517C90.4659 7.75 90.6051 7.50852 90.6051 7.22727C90.6051 7 90.5256 6.80966 90.3665 6.65625C90.2074 6.5 89.9631 6.38352 89.6335 6.30682L88.5426 6.05114C87.9432 5.90909 87.5028 5.68892 87.2216 5.39062C86.9432 5.08949 86.804 4.71307 86.804 4.26136C86.804 3.89205 86.9077 3.56534 87.1151 3.28125C87.3253 2.99716 87.6108 2.77415 87.9716 2.61222C88.3352 2.45028 88.7472 2.36932 89.2074 2.36932C89.8551 2.36932 90.3636 2.51136 90.733 2.79545C91.1051 3.07955 91.3693 3.45455 91.5256 3.92045ZM94.1644 5.0625V9H93.1587V0.272727H94.1644V3.47727H94.2496C94.4031 3.1392 94.6332 2.87074 94.94 2.67188C95.2496 2.47017 95.6616 2.36932 96.1758 2.36932C96.6218 2.36932 97.0124 2.45881 97.3477 2.63778C97.6829 2.81392 97.9428 3.08523 98.1275 3.4517C98.315 3.81534 98.4087 4.27841 98.4087 4.84091V9H97.4031V4.90909C97.4031 4.3892 97.2681 3.98722 96.9982 3.70312C96.7312 3.41619 96.3604 3.27273 95.886 3.27273C95.5565 3.27273 95.261 3.34233 94.9996 3.48153C94.7411 3.62074 94.5366 3.82386 94.386 4.09091C94.2383 4.35795 94.1644 4.68182 94.1644 5.0625ZM100.249 9V2.45455H101.254V9H100.249ZM100.76 1.36364C100.564 1.36364 100.395 1.29688 100.253 1.16335C100.114 1.02983 100.044 0.869318 100.044 0.681818C100.044 0.494318 100.114 0.333807 100.253 0.200284C100.395 0.0667613 100.564 0 100.76 0C100.956 0 101.124 0.0667613 101.263 0.200284C101.405 0.333807 101.476 0.494318 101.476 0.681818C101.476 0.869318 101.405 1.02983 101.263 1.16335C101.124 1.29688 100.956 1.36364 100.76 1.36364ZM104.102 5.0625V9H103.096V2.45455H104.068V3.47727H104.153C104.306 3.14489 104.539 2.87784 104.852 2.67614C105.164 2.47159 105.568 2.36932 106.062 2.36932C106.505 2.36932 106.893 2.46023 107.225 2.64205C107.558 2.82102 107.816 3.09375 108.001 3.46023C108.186 3.82386 108.278 4.28409 108.278 4.84091V9H107.272V4.90909C107.272 4.39489 107.139 3.99432 106.872 3.70739C106.605 3.41761 106.238 3.27273 105.772 3.27273C105.451 3.27273 105.164 3.34233 104.912 3.48153C104.662 3.62074 104.464 3.82386 104.319 4.09091C104.174 4.35795 104.102 4.68182 104.102 5.0625ZM114.752 3.92045L113.849 4.17614C113.792 4.02557 113.708 3.87926 113.597 3.73722C113.489 3.59233 113.342 3.47301 113.154 3.37926C112.967 3.28551 112.727 3.23864 112.434 3.23864C112.033 3.23864 111.7 3.33097 111.433 3.51562C111.168 3.69744 111.036 3.92898 111.036 4.21023C111.036 4.46023 111.127 4.65767 111.309 4.80256C111.491 4.94744 111.775 5.06818 112.161 5.16477L113.133 5.40341C113.718 5.54545 114.154 5.76278 114.441 6.0554C114.728 6.34517 114.871 6.71875 114.871 7.17614C114.871 7.55114 114.763 7.88636 114.548 8.18182C114.335 8.47727 114.036 8.71023 113.653 8.88068C113.269 9.05114 112.823 9.13636 112.315 9.13636C111.647 9.13636 111.094 8.99148 110.657 8.7017C110.219 8.41193 109.942 7.98864 109.826 7.43182L110.781 7.19318C110.871 7.54545 111.043 7.80966 111.296 7.9858C111.552 8.16193 111.886 8.25 112.298 8.25C112.766 8.25 113.138 8.15057 113.414 7.9517C113.692 7.75 113.832 7.50852 113.832 7.22727C113.832 7 113.752 6.80966 113.593 6.65625C113.434 6.5 113.19 6.38352 112.86 6.30682L111.769 6.05114C111.17 5.90909 110.729 5.68892 110.448 5.39062C110.17 5.08949 110.031 4.71307 110.031 4.26136C110.031 3.89205 110.134 3.56534 110.342 3.28125C110.552 2.99716 110.837 2.77415 111.198 2.61222C111.562 2.45028 111.974 2.36932 112.434 2.36932C113.082 2.36932 113.59 2.51136 113.96 2.79545C114.332 3.07955 114.596 3.45455 114.752 3.92045ZM117.391 5.0625V9H116.385V0.272727H117.391V3.47727H117.476C117.63 3.1392 117.86 2.87074 118.167 2.67188C118.476 2.47017 118.888 2.36932 119.402 2.36932C119.848 2.36932 120.239 2.45881 120.574 2.63778C120.909 2.81392 121.169 3.08523 121.354 3.4517C121.542 3.81534 121.635 4.27841 121.635 4.84091V9H120.63V4.90909C120.63 4.3892 120.495 3.98722 120.225 3.70312C119.958 3.41619 119.587 3.27273 119.113 3.27273C118.783 3.27273 118.488 3.34233 118.226 3.48153C117.968 3.62074 117.763 3.82386 117.613 4.09091C117.465 4.35795 117.391 4.68182 117.391 5.0625ZM127.6 6.32386V2.45455H128.606V9H127.6V7.89205H127.532C127.379 8.22443 127.14 8.5071 126.816 8.74006C126.492 8.97017 126.083 9.08523 125.589 9.08523C125.18 9.08523 124.816 8.99574 124.498 8.81676C124.18 8.63494 123.93 8.36222 123.748 7.99858C123.566 7.6321 123.475 7.17045 123.475 6.61364V2.45455H124.481V6.54545C124.481 7.02273 124.614 7.40341 124.881 7.6875C125.151 7.97159 125.495 8.11364 125.913 8.11364C126.163 8.11364 126.417 8.04972 126.675 7.92188C126.937 7.79403 127.156 7.59801 127.332 7.33381C127.511 7.0696 127.6 6.73295 127.6 6.32386ZM134.198 4.78977V5.72727H130.38V4.78977H134.198ZM140.092 6.32386V2.45455H141.098V9H140.092V7.89205H140.024C139.871 8.22443 139.632 8.5071 139.308 8.74006C138.984 8.97017 138.575 9.08523 138.081 9.08523C137.672 9.08523 137.308 8.99574 136.99 8.81676C136.672 8.63494 136.422 8.36222 136.24 7.99858C136.058 7.6321 135.967 7.17045 135.967 6.61364V2.45455H136.973V6.54545C136.973 7.02273 137.107 7.40341 137.374 7.6875C137.643 7.97159 137.987 8.11364 138.405 8.11364C138.655 8.11364 138.909 8.04972 139.168 7.92188C139.429 7.79403 139.648 7.59801 139.824 7.33381C140.003 7.0696 140.092 6.73295 140.092 6.32386ZM143.673 9.06818C143.463 9.06818 143.282 8.9929 143.132 8.84233C142.981 8.69176 142.906 8.51136 142.906 8.30114C142.906 8.09091 142.981 7.91051 143.132 7.75994C143.282 7.60937 143.463 7.53409 143.673 7.53409C143.883 7.53409 144.064 7.60937 144.214 7.75994C144.365 7.91051 144.44 8.09091 144.44 8.30114C144.44 8.44034 144.404 8.56818 144.333 8.68466C144.265 8.80114 144.173 8.89489 144.056 8.96591C143.943 9.03409 143.815 9.06818 143.673 9.06818ZM148.171 9.15341C147.756 9.15341 147.38 9.07528 147.042 8.91903C146.703 8.75994 146.435 8.53125 146.236 8.23295C146.037 7.93182 145.938 7.56818 145.938 7.14205C145.938 6.76705 146.012 6.46307 146.159 6.23011C146.307 5.99432 146.505 5.80966 146.752 5.67614C146.999 5.54261 147.272 5.44318 147.57 5.37784C147.871 5.30966 148.174 5.25568 148.478 5.21591C148.875 5.16477 149.198 5.12642 149.445 5.10085C149.695 5.07244 149.877 5.02557 149.99 4.96023C150.107 4.89489 150.165 4.78125 150.165 4.61932V4.58523C150.165 4.16477 150.05 3.83807 149.82 3.60511C149.593 3.37216 149.248 3.25568 148.784 3.25568C148.304 3.25568 147.928 3.3608 147.655 3.57102C147.382 3.78125 147.191 4.00568 147.08 4.24432L146.125 3.90341C146.296 3.50568 146.523 3.19602 146.807 2.97443C147.094 2.75 147.407 2.59375 147.745 2.50568C148.086 2.41477 148.421 2.36932 148.75 2.36932C148.961 2.36932 149.202 2.39489 149.475 2.44602C149.75 2.49432 150.016 2.59517 150.272 2.74858C150.53 2.90199 150.745 3.13352 150.915 3.44318C151.086 3.75284 151.171 4.16761 151.171 4.6875V9H150.165V8.11364H150.114C150.046 8.25568 149.932 8.40767 149.773 8.5696C149.614 8.73153 149.402 8.86932 149.138 8.98295C148.874 9.09659 148.551 9.15341 148.171 9.15341ZM148.324 8.25C148.722 8.25 149.057 8.17188 149.33 8.01562C149.605 7.85938 149.813 7.65767 149.952 7.41051C150.094 7.16335 150.165 6.90341 150.165 6.63068V5.71023C150.123 5.76136 150.029 5.80824 149.884 5.85085C149.742 5.89062 149.577 5.92614 149.39 5.95739C149.205 5.9858 149.025 6.01136 148.848 6.03409C148.675 6.05398 148.534 6.07102 148.426 6.08523C148.165 6.11932 147.921 6.17472 147.694 6.25142C147.469 6.32528 147.287 6.4375 147.148 6.58807C147.012 6.7358 146.944 6.9375 146.944 7.19318C146.944 7.54261 147.073 7.80682 147.331 7.9858C147.593 8.16193 147.924 8.25 148.324 8.25ZM155.665 9.13636C155.052 9.13636 154.523 8.99148 154.08 8.7017C153.637 8.41193 153.296 8.01278 153.058 7.50426C152.819 6.99574 152.7 6.41477 152.7 5.76136C152.7 5.09659 152.822 4.50994 153.066 4.00142C153.313 3.49006 153.657 3.09091 154.097 2.80398C154.54 2.5142 155.058 2.36932 155.648 2.36932C156.109 2.36932 156.523 2.45455 156.893 2.625C157.262 2.79545 157.565 3.03409 157.8 3.34091C158.036 3.64773 158.183 4.00568 158.239 4.41477H157.234C157.157 4.11648 156.987 3.85227 156.722 3.62216C156.461 3.3892 156.109 3.27273 155.665 3.27273C155.273 3.27273 154.93 3.375 154.634 3.57955C154.342 3.78125 154.113 4.06676 153.948 4.43608C153.786 4.80256 153.705 5.23295 153.705 5.72727C153.705 6.23295 153.785 6.6733 153.944 7.0483C154.106 7.4233 154.333 7.71449 154.626 7.92188C154.921 8.12926 155.268 8.23295 155.665 8.23295C155.927 8.23295 156.164 8.1875 156.377 8.09659C156.59 8.00568 156.771 7.875 156.918 7.70455C157.066 7.53409 157.171 7.32955 157.234 7.09091H158.239C158.183 7.47727 158.042 7.82528 157.817 8.13494C157.596 8.44176 157.302 8.68608 156.935 8.8679C156.572 9.04688 156.148 9.13636 155.665 9.13636ZM160.442 9.06818C160.232 9.06818 160.052 8.9929 159.901 8.84233C159.751 8.69176 159.675 8.51136 159.675 8.30114C159.675 8.09091 159.751 7.91051 159.901 7.75994C160.052 7.60937 160.232 7.53409 160.442 7.53409C160.653 7.53409 160.833 7.60937 160.984 7.75994C161.134 7.91051 161.21 8.09091 161.21 8.30114C161.21 8.44034 161.174 8.56818 161.103 8.68466C161.035 8.80114 160.942 8.89489 160.826 8.96591C160.712 9.03409 160.585 9.06818 160.442 9.06818ZM163.014 2.45455H164.02V9.47727C164.02 9.88068 163.95 10.2301 163.811 10.5256C163.675 10.821 163.467 11.0497 163.189 11.2116C162.913 11.3736 162.565 11.4545 162.145 11.4545C162.111 11.4545 162.077 11.4545 162.043 11.4545C162.009 11.4545 161.974 11.4545 161.94 11.4545V10.517C161.974 10.517 162.006 10.517 162.034 10.517C162.062 10.517 162.094 10.517 162.128 10.517C162.435 10.517 162.659 10.4261 162.801 10.2443C162.943 10.0653 163.014 9.80966 163.014 9.47727V2.45455ZM163.509 1.36364C163.313 1.36364 163.143 1.29688 163.001 1.16335C162.862 1.02983 162.793 0.869318 162.793 0.681818C162.793 0.494318 162.862 0.333807 163.001 0.200284C163.143 0.0667613 163.313 0 163.509 0C163.705 0 163.872 0.0667613 164.011 0.200284C164.153 0.333807 164.224 0.494318 164.224 0.681818C164.224 0.869318 164.153 1.02983 164.011 1.16335C163.872 1.29688 163.705 1.36364 163.509 1.36364ZM165.862 11.4545V2.45455H166.833V3.49432H166.953C167.027 3.38068 167.129 3.2358 167.26 3.05966C167.393 2.88068 167.583 2.72159 167.831 2.58239C168.081 2.44034 168.419 2.36932 168.845 2.36932C169.396 2.36932 169.882 2.5071 170.302 2.78267C170.723 3.05824 171.051 3.44886 171.287 3.95455C171.522 4.46023 171.64 5.05682 171.64 5.74432C171.64 6.4375 171.522 7.03835 171.287 7.54688C171.051 8.05256 170.724 8.4446 170.306 8.72301C169.889 8.99858 169.407 9.13636 168.862 9.13636C168.441 9.13636 168.105 9.06676 167.852 8.92756C167.599 8.78551 167.404 8.625 167.268 8.44602C167.132 8.2642 167.027 8.11364 166.953 7.99432H166.868V11.4545H165.862ZM166.85 5.72727C166.85 6.22159 166.923 6.65767 167.068 7.03551C167.213 7.41051 167.424 7.70455 167.703 7.91761C167.981 8.12784 168.322 8.23295 168.725 8.23295C169.146 8.23295 169.497 8.12216 169.778 7.90057C170.062 7.67614 170.275 7.375 170.417 6.99716C170.562 6.61648 170.635 6.19318 170.635 5.72727C170.635 5.26705 170.564 4.85227 170.422 4.48295C170.282 4.1108 170.071 3.81676 169.787 3.60085C169.505 3.3821 169.152 3.27273 168.725 3.27273C168.316 3.27273 167.973 3.37642 167.694 3.58381C167.416 3.78835 167.206 4.07528 167.064 4.4446C166.922 4.81108 166.85 5.23864 166.85 5.72727Z" fill="#0078D7"/>
</svg>
